<?xml version="1.0" encoding="utf-8"?>
<!-- Generator: Adobe Illustrator 15.0.2, SVG Export Plug-In . SVG Version: 6.00 Build 0)  -->
<!DOCTYPE svg PUBLIC "-//W3C//DTD SVG 1.1//EN" "http://www.w3.org/Graphics/SVG/1.1/DTD/svg11.dtd">
<svg version="1.1" id="Layer_1" xmlns="http://www.w3.org/2000/svg" xmlns:xlink="http://www.w3.org/1999/xlink" x="0px" y="0px"
	 width="195px" height="55.667px" viewBox="0 0 195 55.667" enable-background="new 0 0 195 55.667" xml:space="preserve">
<g>
	<g>
		<path fill="#231F20" d="M109.303,32.978l1.983-2.375c1.373,1.134,2.812,1.853,4.557,1.853c1.372,0,2.201-0.545,2.201-1.439v-0.043
			c0-0.85-0.523-1.287-3.072-1.94c-3.074-0.784-5.058-1.635-5.058-4.664v-0.044c0-2.769,2.222-4.6,5.339-4.6
			c2.225,0,4.12,0.698,5.669,1.939l-1.745,2.529c-1.351-0.938-2.68-1.504-3.967-1.504c-1.286,0-1.962,0.588-1.962,1.329v0.044
			c0,1.003,0.654,1.329,3.292,2.005c3.096,0.807,4.84,1.919,4.84,4.578v0.043c0,3.031-2.311,4.73-5.604,4.73
			C113.466,35.419,111.134,34.612,109.303,32.978z"/>
		<path fill="#231F20" d="M126.986,23.038h-4.644v-3.096h12.643v3.096h-4.643v12.164h-3.356V23.038z"/>
		<path fill="#231F20" d="M137.125,19.942h11.512v2.986h-8.175v3.096h7.193v2.986h-7.193v3.204h8.282v2.987h-11.619V19.942z"/>
		<path fill="#231F20" d="M151.299,19.942h6.975c1.94,0,3.444,0.545,4.448,1.547c0.85,0.852,1.306,2.051,1.306,3.488v0.044
			c0,2.464-1.329,4.011-3.268,4.73l3.727,5.45h-3.924l-3.271-4.884h-0.043h-2.595v4.884h-3.355V19.942z M158.056,27.354
			c1.635,0,2.573-0.871,2.573-2.157v-0.044c0-1.438-1.003-2.181-2.638-2.181h-3.337v4.382H158.056z"/>
		<path fill="#231F20" d="M166.626,19.942h3.096l7.15,9.396v-9.396h3.313v15.26h-2.854l-7.39-9.7v9.7h-3.315V19.942z"/>
	</g>
	<rect x="102.501" y="14.073" fill="#231F20" width="0.588" height="26.998"/>
</g>
<g>
	<path fill="#57068C" d="M50.224,19.782h3.111l7.184,9.443v-9.443h3.33v15.336h-2.871l-7.424-9.75v9.75h-3.33V19.782z"/>
	<path fill="#57068C" d="M71.427,29.071l-5.893-9.289h3.943l3.658,6.156l3.725-6.156h3.834L74.8,29.007v6.111h-3.373V29.071z"/>
	<path fill="#57068C" d="M82.138,28.546v-8.764h3.373v8.676c0,2.498,1.248,3.791,3.309,3.791c2.059,0,3.307-1.25,3.307-3.68v-8.787
		h3.375v8.654c0,4.643-2.607,6.922-6.727,6.922S82.138,33.06,82.138,28.546z"/>
</g>
<rect x="19.167" y="17.151" fill="#FFFFFF" width="18.667" height="23"/>
<path fill="#57068C" d="M43.222,41.069H16.226V14.071h26.996V41.069L43.222,41.069z M28.791,37.913c0.031,0.189,0.441,0.281,0.533,0
	l0.943-7.48h-2.293L28.791,37.913L28.791,37.913z M31.068,29.892v-1.133h-3.896v1.133H31.068L31.068,29.892z M29.945,28.206
	c4.939,0.178,5.289-4.324,5.309-6.008c0.002-0.098-0.045-0.107-0.07-0.039c-0.145,0.352-0.789,1.607-2.57,2.371
	c-1.59,0.682-2.547,2.23-2.713,3.621C29.892,28.187,29.921,28.204,29.945,28.206z M29.402,27.88c0.781-3.748,3.832-3.84,4.105-4.551
	c0.426-1.109-0.354-3.078-0.553-3.311c-0.02-0.025-0.047-0.01-0.055,0.012c-0.416,0.908-1.086,1.771-1.576,2.17
	c-0.691,0.557-3.342,2.521-1.986,5.682C29.355,27.921,29.392,27.911,29.402,27.88z M28.863,28.03
	c-1.654-3.535,1.652-5.816,2.193-6.313c0.076-0.068,0.057-0.133,0.057-0.213c0.002-1.111-0.635-2.912-0.844-3.17
	c-0.029-0.039-0.055-0.023-0.066,0.018c-0.283,1.098-1.791,2.732-2.092,3.09c-2.555,3.037-1.971,4.887,0.697,6.631
	C28.841,28.095,28.882,28.069,28.863,28.03z M28.123,28.151c-2.768-1.65-2.49-4.008-1.344-5.742
	c0.025-0.035,0.033-0.096,0.025-0.166c-0.049-0.412-0.498-1.455-0.686-1.738c-0.049-0.072-0.09-0.066-0.094-0.016
	c-0.016,0.471-0.553,1.652-1.373,3.014c-0.873,1.449-0.875,4.592,3.459,4.715C28.152,28.218,28.164,28.177,28.123,28.151z"/>
</svg>
